<svg xmlns="http://www.w3.org/2000/svg" viewBox="0 0 64 64"><style type="text/css">
	.st0{fill:#FFFFFF;}
</style><path class="st0" d="M6.8 36.9c0-2.7 0-5.5 0-8.2 0-0.1 0.1-0.3 0.1-0.4 0.1-1 0.1-2 0.2-3 0.1-1.7 0.3-3.5 0.9-5.2 0.8-2.2 2.4-3.6 4.6-4.1 0.9-0.2 1.7-0.3 2.6-0.3 3.5-0.2 6.9-0.4 10.4-0.5 4.5-0.1 9 0 13.5 0 3.8 0 7.6 0.2 11.4 0.6 2.8 0.3 5.1 2.1 5.8 4.9 0.4 1.7 0.5 3.4 0.7 5.1 0.1 0.9 0.1 1.8 0.2 2.7 0 2.8 0 5.5 0 8.3 0 0.2-0.1 0.3-0.1 0.5 -0.1 1-0.1 2-0.2 3 -0.1 1.7-0.3 3.4-0.9 5 -0.8 2.2-2.4 3.6-4.6 4.1 -0.8 0.2-1.7 0.3-2.6 0.3 -3.5 0.2-7 0.4-10.4 0.5 -4.5 0.1-9 0-13.5 0 -3.8 0-7.6-0.2-11.4-0.6 -3-0.3-5.3-2.3-5.8-5.2C7.4 42.8 7.2 41 7 39.3 6.9 38.5 6.9 37.7 6.8 36.9zM41.5 32.3c-5.4-2.8-10.7-5.6-16-8.3 0 5.6 0 11.1 0 16.6C30.8 37.9 36.1 35.1 41.5 32.3z"/></svg>
