<svg xmlns="http://www.w3.org/2000/svg" viewBox="0 0 64 64"><style type="text/css">
	.st0{fill:#FFFFFF;}
</style><path class="st0" d="M32 13.4c6.1 0 6.8 0 9.2 0.1 2.2 0.1 3.4 0.5 4.2 0.8 1.1 0.4 1.8 0.9 2.6 1.7 0.8 0.8 1.3 1.5 1.7 2.6 0.3 0.8 0.7 2 0.8 4.2 0.1 2.4 0.1 3.1 0.1 9.2s0 6.8-0.1 9.2c-0.1 2.2-0.5 3.4-0.8 4.2 -0.4 1.1-0.9 1.8-1.7 2.6 -0.8 0.8-1.5 1.3-2.6 1.7 -0.8 0.3-2 0.7-4.2 0.8 -2.4 0.1-3.1 0.1-9.2 0.1s-6.8 0-9.2-0.1c-2.2-0.1-3.4-0.5-4.2-0.8 -1.1-0.4-1.8-0.9-2.6-1.7 -0.8-0.8-1.3-1.5-1.7-2.6 -0.3-0.8-0.7-2-0.8-4.2 -0.1-2.4-0.1-3.1-0.1-9.2s0-6.8 0.1-9.2c0.1-2.2 0.5-3.4 0.8-4.2 0.4-1.1 0.9-1.8 1.7-2.6 0.8-0.8 1.5-1.3 2.6-1.7 0.8-0.3 2-0.7 4.2-0.8C25.2 13.4 25.9 13.4 32 13.4M32 9.3c-6.2 0-6.9 0-9.3 0.1 -2.4 0.1-4.1 0.5-5.5 1.1 -1.5 0.6-2.8 1.4-4 2.6 -1.3 1.3-2 2.5-2.6 4 -0.6 1.4-0.9 3.1-1.1 5.5 -0.1 2.4-0.1 3.2-0.1 9.3 0 6.2 0 6.9 0.1 9.3 0.1 2.4 0.5 4.1 1.1 5.5 0.6 1.5 1.4 2.8 2.6 4 1.3 1.3 2.5 2 4 2.6 1.4 0.6 3.1 0.9 5.5 1.1 2.4 0.1 3.2 0.1 9.3 0.1s6.9 0 9.3-0.1c2.4-0.1 4.1-0.5 5.5-1.1 1.5-0.6 2.8-1.4 4-2.6 1.3-1.3 2-2.5 2.6-4 0.6-1.4 0.9-3.1 1.1-5.5 0.1-2.4 0.1-3.2 0.1-9.3s0-6.9-0.1-9.3c-0.1-2.4-0.5-4.1-1.1-5.5 -0.6-1.5-1.4-2.8-2.6-4 -1.3-1.3-2.5-2-4-2.6 -1.4-0.6-3.1-0.9-5.5-1.1C38.9 9.4 38.2 9.3 32 9.3L32 9.3z"/><path class="st0" d="M32 20.4c-6.4 0-11.6 5.2-11.6 11.6S25.6 43.6 32 43.6 43.6 38.4 43.6 32 38.4 20.4 32 20.4zM32 39.6c-4.2 0-7.6-3.4-7.6-7.6s3.4-7.6 7.6-7.6 7.6 3.4 7.6 7.6S36.2 39.6 32 39.6z"/><circle class="st0" cx="44.1" cy="19.9" r="2.7"/></svg>
