<svg xmlns="http://www.w3.org/2000/svg" viewBox="0 0 64 64"><style type="text/css">
	.st0{fill:#FFFFFF;}
</style><path class="st0" d="M42 12.7c2.2-0.1 4.3 0.6 6 2.1 0.8 0.7 1.6 0.8 2.5 0.5 1.1-0.4 2.1-0.9 3.2-1.3 0.3-0.1 0.7-0.1 1-0.2 -0.1 0.4-0.1 0.8-0.3 1.1 -0.8 1-1.6 2-2.4 3 -0.1 0.2-0.2 0.4-0.3 0.6 0.2 0 0.4 0 0.6 0 0.8-0.2 1.6-0.5 2.4-0.7 0.4-0.1 0.7-0.1 1.1-0.2 -0.2 0.4-0.3 0.8-0.6 1.1 -0.8 0.9-1.7 1.8-2.6 2.6 -0.7 0.6-1 1.2-1 2.1 0 3.7-0.8 7.3-2.2 10.7 -3.9 9-10.7 14.5-20.4 16.2 -6.3 1.1-12.3 0-17.9-3.1 -0.3-0.1-0.4-0.4-0.6-0.6 0.3 0 0.6-0.1 0.9-0.1 4-0.1 7.8-1 11.1-3.2 0.2-0.2 0.4-0.4 0.6-0.7 -0.3-0.1-0.5-0.2-0.8-0.3 -3.1-0.7-5.5-2.4-6.9-5.3 -0.2-0.3-0.2-0.7-0.3-1.1 0.4 0 0.7-0.1 1.1-0.1 0.3 0 0.6 0.1 0.9 0.1 0.4-0.1 0.8-0.2 1.2-0.4 -0.3-0.2-0.7-0.4-1-0.5 -3.4-1.5-5.1-4.1-5.7-7.7 -0.1-0.7-0.1-1.2 0.8-0.9 0.8 0.2 1.7 0.4 2.6 0.7 -0.5-0.7-1-1.3-1.5-2 -1.9-2.8-2.3-5.8-1.3-9 0.5-1.6 0.7-1.6 1.8-0.4 2.7 3 5.8 5.3 9.6 6.7 2.4 0.9 5 1.4 7.6 2 1.1 0.3 1.3 0 1.2-1.2C31.9 17.5 36.4 12.5 42 12.7z"/></svg>
